<svg width="36" height="36" viewBox="0 0 36 36" fill="none" xmlns="http://www.w3.org/2000/svg">
<path d="M11.8125 5.625C10.8773 5.625 10.125 6.37734 10.125 7.3125V28.6875C10.125 29.2781 10.0266 29.8477 9.83672 30.375H30.9375C31.8727 30.375 32.625 29.6227 32.625 28.6875V7.3125C32.625 6.37734 31.8727 5.625 30.9375 5.625H11.8125ZM5.0625 33.75C2.26406 33.75 0 31.4859 0 28.6875V7.875C0 6.93984 0.752344 6.1875 1.6875 6.1875C2.62266 6.1875 3.375 6.93984 3.375 7.875V28.6875C3.375 29.6227 4.12734 30.375 5.0625 30.375C5.99766 30.375 6.75 29.6227 6.75 28.6875V7.3125C6.75 4.51406 9.01406 2.25 11.8125 2.25H30.9375C33.7359 2.25 36 4.51406 36 7.3125V28.6875C36 31.4859 33.7359 33.75 30.9375 33.75H5.0625ZM12.375 9.5625C12.375 8.62734 13.1273 7.875 14.0625 7.875H20.8125C21.7477 7.875 22.5 8.62734 22.5 9.5625V15.1875C22.5 16.1227 21.7477 16.875 20.8125 16.875H14.0625C13.1273 16.875 12.375 16.1227 12.375 15.1875V9.5625ZM26.4375 7.875H28.6875C29.6227 7.875 30.375 8.62734 30.375 9.5625C30.375 10.4977 29.6227 11.25 28.6875 11.25H26.4375C25.5023 11.25 24.75 10.4977 24.75 9.5625C24.75 8.62734 25.5023 7.875 26.4375 7.875ZM26.4375 13.5H28.6875C29.6227 13.5 30.375 14.2523 30.375 15.1875C30.375 16.1227 29.6227 16.875 28.6875 16.875H26.4375C25.5023 16.875 24.75 16.1227 24.75 15.1875C24.75 14.2523 25.5023 13.5 26.4375 13.5ZM14.0625 19.125H28.6875C29.6227 19.125 30.375 19.8773 30.375 20.8125C30.375 21.7477 29.6227 22.5 28.6875 22.5H14.0625C13.1273 22.5 12.375 21.7477 12.375 20.8125C12.375 19.8773 13.1273 19.125 14.0625 19.125ZM14.0625 24.75H28.6875C29.6227 24.75 30.375 25.5023 30.375 26.4375C30.375 27.3727 29.6227 28.125 28.6875 28.125H14.0625C13.1273 28.125 12.375 27.3727 12.375 26.4375C12.375 25.5023 13.1273 24.75 14.0625 24.75Z" fill="currentColor"/>
</svg>
