<svg width="14" height="14" viewBox="0 0 14 14" fill="none" xmlns="http://www.w3.org/2000/svg">
<path d="M9.91757 0.52771L8.59413 1.85115L12.1488 5.40583L13.4723 4.0824C14.1559 3.3988 14.1559 2.29138 13.4723 1.60779L12.3949 0.52771C11.7113 -0.155884 10.6039 -0.155884 9.92031 0.52771H9.91757ZM7.97617 2.46912L1.60234 8.84568C1.31796 9.13005 1.11015 9.48279 0.995306 9.86833L0.0273373 13.1578C-0.041022 13.3902 0.0218686 13.639 0.1914 13.8086C0.360931 13.9781 0.609759 14.041 0.839447 13.9754L4.1289 13.0074C4.51445 12.8926 4.86718 12.6847 5.15156 12.4004L11.5309 6.0238L7.97617 2.46912Z" fill="currentColor"/>
</svg>
