<svg width="68" height="60" viewBox="0 0 68 60" fill="none" xmlns="http://www.w3.org/2000/svg">
<path d="M0.707029 2.68359C1.48047 1.04297 3.12109 0 4.9375 0H55.5625C57.3789 0 59.0195 1.04297 59.793 2.68359C60.5664 4.32422 60.332 6.25781 59.1836 7.66406L46.7031 22.9219C37.3047 24.8555 30.25 33.1641 30.25 43.125C30.25 46.3359 30.9883 49.3828 32.3008 52.0898C32.1133 51.9961 31.9258 51.8789 31.75 51.75L24.25 46.125C23.3008 45.4219 22.75 44.3086 22.75 43.125V33.8555L1.30469 7.65234C0.167967 6.25781 -0.0781271 4.3125 0.707029 2.68359ZM50.875 26.25C55.3505 26.25 59.6427 28.0279 62.8074 31.1926C65.9721 34.3573 67.75 38.6495 67.75 43.125C67.75 47.6005 65.9721 51.8927 62.8074 55.0574C59.6427 58.2221 55.3505 60 50.875 60C46.3995 60 42.1072 58.2221 38.9426 55.0574C35.7779 51.8927 34 47.6005 34 43.125C34 38.6495 35.7779 34.3573 38.9426 31.1926C42.1072 28.0279 46.3995 26.25 50.875 26.25ZM57.8242 38.8242C58.5508 38.0977 58.5508 36.9023 57.8242 36.1758C57.0976 35.4492 55.9023 35.4492 55.1758 36.1758L50.875 40.4766L46.5742 36.1758C45.8477 35.4492 44.6523 35.4492 43.9258 36.1758C43.1992 36.9023 43.1992 38.0977 43.9258 38.8242L48.2266 43.125L43.9258 47.4258C43.1992 48.1523 43.1992 49.3477 43.9258 50.0742C44.6523 50.8008 45.8477 50.8008 46.5742 50.0742L50.875 45.7734L55.1758 50.0742C55.9023 50.8008 57.0976 50.8008 57.8242 50.0742C58.5508 49.3477 58.5508 48.1523 57.8242 47.4258L53.5234 43.125L57.8242 38.8242Z" fill="currentColor"/>
</svg>
