<svg width="18" height="18" viewBox="0 0 18 18" fill="none" xmlns="http://www.w3.org/2000/svg">
<path d="M10.25 2.125C10.25 1.43359 9.69141 0.875 9 0.875C8.30859 0.875 7.75 1.43359 7.75 2.125V7.75H2.125C1.43359 7.75 0.875 8.30859 0.875 9C0.875 9.69141 1.43359 10.25 2.125 10.25H7.75V15.875C7.75 16.5664 8.30859 17.125 9 17.125C9.69141 17.125 10.25 16.5664 10.25 15.875V10.25H15.875C16.5664 10.25 17.125 9.69141 17.125 9C17.125 8.30859 16.5664 7.75 15.875 7.75H10.25V2.125Z" fill="currentColor"/>
</svg>
