<svg viewBox="0 0 15 14" fill="none" xmlns="http://www.w3.org/2000/svg">
<path d="M11.2188 6C12.875 6 14.2188 4.65625 14.2188 3C14.2188 1.34375 12.875 0 11.2188 0C9.5625 0 8.21875 1.34375 8.21875 3C8.21875 3.125 8.225 3.25 8.24063 3.37187L5.3 4.84062C4.7625 4.31875 4.02813 4 3.21875 4C1.5625 4 0.21875 5.34375 0.21875 7C0.21875 8.65625 1.5625 10 3.21875 10C4.02813 10 4.7625 9.68125 5.3 9.15938L8.24063 10.6281C8.225 10.75 8.21875 10.8719 8.21875 11C8.21875 12.6562 9.5625 14 11.2188 14C12.875 14 14.2188 12.6562 14.2188 11C14.2188 9.34375 12.875 8 11.2188 8C10.4094 8 9.675 8.31875 9.1375 8.84062L6.19688 7.37187C6.2125 7.25 6.21875 7.12813 6.21875 7C6.21875 6.87187 6.2125 6.75 6.19688 6.62813L9.1375 5.15938C9.675 5.68125 10.4094 6 11.2188 6Z" fill="currentColor"/>
</svg>
