<svg width="15" height="16" viewBox="0 0 15 16" fill="none" xmlns="http://www.w3.org/2000/svg">
<path d="M6.1875 1.6125L5.59375 2.5H10.125L9.53125 1.6125C9.48438 1.54375 9.40625 1.5 9.32187 1.5H6.39375C6.30938 1.5 6.23125 1.54062 6.18437 1.6125H6.1875ZM10.7812 0.78125L11.9281 2.5H12.3594H13.8594H14.1094C14.525 2.5 14.8594 2.83437 14.8594 3.25C14.8594 3.66563 14.525 4 14.1094 4H13.8594V13.5C13.8594 14.8813 12.7406 16 11.3594 16H4.35938C2.97813 16 1.85938 14.8813 1.85938 13.5V4H1.60938C1.19375 4 0.859375 3.66563 0.859375 3.25C0.859375 2.83437 1.19375 2.5 1.60938 2.5H1.85938H3.35938H3.79063L4.9375 0.778125C5.2625 0.29375 5.80938 0 6.39375 0H9.32187C9.90625 0 10.4531 0.29375 10.7781 0.778125L10.7812 0.78125ZM3.35938 4V13.5C3.35938 14.0531 3.80625 14.5 4.35938 14.5H11.3594C11.9125 14.5 12.3594 14.0531 12.3594 13.5V4H3.35938ZM5.85938 6V12.5C5.85938 12.775 5.63438 13 5.35938 13C5.08437 13 4.85938 12.775 4.85938 12.5V6C4.85938 5.725 5.08437 5.5 5.35938 5.5C5.63438 5.5 5.85938 5.725 5.85938 6ZM8.35938 6V12.5C8.35938 12.775 8.13438 13 7.85938 13C7.58437 13 7.35938 12.775 7.35938 12.5V6C7.35938 5.725 7.58437 5.5 7.85938 5.5C8.13438 5.5 8.35938 5.725 8.35938 6ZM10.8594 6V12.5C10.8594 12.775 10.6344 13 10.3594 13C10.0844 13 9.85938 12.775 9.85938 12.5V6C9.85938 5.725 10.0844 5.5 10.3594 5.5C10.6344 5.5 10.8594 5.725 10.8594 6Z" fill="currentColor"/>
</svg>
